<svg width="76" height="66" viewBox="0 0 76 66" fill="none" xmlns="http://www.w3.org/2000/svg">
<path d="M23.1551 33.0304L24.2809 45.4705C24.3152 45.8502 24.5624 46.1772 24.9182 46.3139L38.9477 51.703C39.3231 51.8472 39.7483 51.7525 40.0271 51.4626L50.5656 40.5024C50.6582 40.4061 50.7306 40.2922 50.7784 40.1675L59.7799 16.7029C60.0816 15.9164 59.3352 15.1321 58.5348 15.3945L36.0896 22.7513C35.985 22.7856 35.8868 22.8369 35.7989 22.9032L23.5489 32.1419C23.2728 32.3501 23.1239 32.6861 23.1551 33.0304Z" fill="#A3F7B5" stroke="#40C9A2" stroke-width="2"/>
<path d="M24.3917 46.0994L52.7719 19.9157" stroke="#40C9A2" stroke-width="2"/>
<path d="M31.4526 39.6752L41.5217 45.9211" stroke="#40C9A2" stroke-width="2"/>
<path d="M31.3158 40.1623L29.6476 32.0732" stroke="#40C9A2" stroke-width="2"/>
<path d="M38.2014 33.4262L46.7712 38.4623" stroke="#40C9A2" stroke-width="2"/>
<path d="M37.5775 33.7764L36.2978 27.1103" stroke="#40C9A2" stroke-width="2"/>
<path d="M44.0144 27.7024L50.2857 31.567" stroke="#40C9A2" stroke-width="2"/>
<path d="M44.0144 27.7024L42.8111 22.6344" stroke="#40C9A2" stroke-width="2"/>
<path d="M15.2265 55.4723L25.8859 45.233L16.6716 56.7899C16.3242 57.2255 15.684 57.2843 15.2632 56.9191C14.8279 56.5414 14.8109 55.8715 15.2265 55.4723Z" fill="#A3F7B5" stroke="#40C9A2" stroke-width="2"/>
</svg>
