<svg width="240" height="521" viewBox="0 0 240 521" fill="none" xmlns="http://www.w3.org/2000/svg">
<path d="M0 256H240V522.5H0V256Z" fill="#40C9BE"/>
<path d="M131.283 11.6087C135.793 9.35334 141.277 11.244 143.439 15.8002L144.297 17.6092C146.184 21.5852 150.669 23.6137 154.901 22.4046L165.593 19.3495C167.52 18.799 169.576 18.9073 171.434 19.6573L180.54 23.3322C182.414 24.0887 184.488 24.1922 186.429 23.6261L200.417 19.5452C202.711 18.876 205.177 19.1464 207.271 20.2967L232.601 34.2104C236.551 36.3804 238.288 41.138 236.663 45.3423L231.715 58.1481C230.932 60.1764 230.909 62.4198 231.651 64.4637L234.764 73.037C235.877 76.1014 235.246 79.5281 233.114 81.9946L212.72 105.588C211.654 106.821 211.067 108.397 211.067 110.028V111.316C211.067 117.551 203.047 120.087 199.462 114.986C198.563 113.707 197.226 112.802 195.704 112.443L179.006 108.508C171.884 106.829 169.635 97.805 175.137 92.9809L176.161 92.0825C180.09 88.6376 180.269 82.5823 176.551 78.9111L168.177 70.6428C166.464 68.9518 165.5 66.6453 165.5 64.2384V61.752C165.5 55.5335 159.344 51.1888 153.485 53.272L146.687 55.6891C144.335 56.5252 142.436 58.3004 141.444 60.5905L137.731 69.1597C136.933 71.0003 135.544 72.5217 133.782 73.4823L129.44 75.8507C127.011 77.1756 125.5 79.7216 125.5 82.4885C125.5 86.2312 122.762 89.4107 119.061 89.9659L110.133 91.305C107.229 91.7406 104.296 90.7322 102.273 88.6033L96.9252 82.9739C96.3221 82.3391 95.9221 81.5388 95.7761 80.6755L94.0625 70.5374C93.6888 68.3269 90.5754 68.1621 89.9705 70.3208C89.6978 71.2943 88.77 71.9351 87.7629 71.8456L72.3853 70.4787C69.0711 70.1841 66.1898 68.0851 64.8934 65.0208L62.7745 60.0125C61.9512 58.0664 60.4694 56.4721 58.5887 55.5088L52.4573 52.3684C46.8926 49.5181 45.8579 42.002 50.4455 37.7541L53.481 34.9436C54.1563 34.3182 54.9236 33.8002 55.7561 33.4075L79.0898 22.401C80.3462 21.8084 81.4484 20.933 82.31 19.8433L91.8912 7.72588C95.1723 3.57626 101.307 3.13787 105.145 6.77883L112.923 14.158C115.671 16.7644 119.755 17.3723 123.143 15.6787L131.283 11.6087Z" fill="#40C9A2"/>
<rect x="166" y="117" width="74" height="161" fill="#40C9BE"/>
<rect x="76" y="175" width="74" height="103" fill="#40C9BE"/>
<rect x="32" y="302" width="42" height="43" fill="#E8FAEC"/>
<rect x="167" y="302" width="42" height="43" fill="#E8FAEC"/>
<rect x="100" y="302" width="42" height="43" fill="#E8FAEC"/>
<rect x="32" y="369" width="42" height="43" fill="#585353"/>
<rect x="167" y="369" width="42" height="43" fill="#585353"/>
<rect x="100" y="369" width="42" height="43" fill="#585353"/>
<rect x="32" y="369" width="42" height="43" fill="#E8FAEC"/>
<rect x="167" y="369" width="42" height="43" fill="#E8FAEC"/>
<rect x="100" y="369" width="42" height="43" fill="#E8FAEC"/>
<rect x="32" y="429" width="42" height="43" fill="#E8FAEC"/>
<rect x="167" y="429" width="42" height="43" fill="#E8FAEC"/>
<rect x="100" y="429" width="42" height="43" fill="#E8FAEC"/>
<path d="M67.9902 84.6196C71.1792 92.5329 72.9956 101.183 75.3713 109.346" stroke="#40C9A2" stroke-width="3" stroke-linecap="round"/>
<path d="M62.8235 100.858C69.7831 97.8753 77.0899 95.3855 83.8596 92.0007" stroke="#40C9A2" stroke-width="3" stroke-linecap="round"/>
<path d="M36.2515 63.5834C37.3909 66.7002 38.4973 69.7229 40.2701 72.5432C40.9372 73.6046 41.5405 74.5282 41.7873 75.7622" stroke="#40C9A2" stroke-width="3" stroke-linecap="round"/>
<path d="M34.4062 71.7026L44.7398 66.1668" stroke="#40C9A2" stroke-width="3" stroke-linecap="round"/>
<path d="M35.7944 91.7962C36.7489 95.5853 37.8804 99.3745 38.6459 103.202" stroke="#40C9A2" stroke-width="3" stroke-linecap="round"/>
<path d="M32.6169 99.212C33.1887 99.212 34.8481 98.4301 35.2971 98.0709C35.4824 97.9227 36.5242 97.8528 36.7964 97.7923C37.2948 97.6816 37.8836 97.4551 38.3487 97.2483C40.0133 96.5085 41.7515 95.6296 43.6029 95.6296" stroke="#40C9A2" stroke-width="3" stroke-linecap="round"/>
</svg>
