<svg width="208" height="304" viewBox="0 0 208 304" fill="none" xmlns="http://www.w3.org/2000/svg">
<rect x="123" y="71" width="7" height="23" fill="#D9D9D9"/>
<rect x="11" y="94" width="135" height="103" fill="#2F9C95"/>
<rect y="200" width="208" height="11" fill="#40C9BE"/>
<rect x="12" y="214" width="196" height="90" fill="#2F9C95"/>
<rect x="97.4771" width="116" height="58" transform="rotate(26.0567 97.4771 0)" fill="#40C9BE"/>
<path d="M101 64.5L125.5 16" stroke="black"/>
<path d="M113 69.5L137.5 21" stroke="black"/>
<path d="M141 83.5L165.5 35" stroke="white"/>
<path d="M81 40L129.5 64.5" stroke="white"/>
<path d="M89 26L137.5 50.5" stroke="white"/>
<path d="M97 13L145.5 37.5" stroke="white"/>
<path d="M130 65L178.5 89.5" stroke="white"/>
<path d="M138 51L186.5 75.5" stroke="white"/>
<path d="M146 38L194.5 62.5" stroke="white"/>
<path d="M125 75.5L149.5 27" stroke="white" stroke-width="5"/>
<path d="M101 64.5L125.5 16" stroke="white"/>
<path d="M113 69.5L137.5 21" stroke="white"/>
<path d="M79 54.5L103.5 6" stroke="white"/>
<path d="M91 59.5L115.5 11" stroke="white"/>
<path d="M168 96.5L192.5 48" stroke="white"/>
<path d="M154 89.5L178.5 41" stroke="white"/>
<rect x="51" y="232" width="42" height="72" fill="#40C9BE"/>
<rect x="105" y="232" width="88" height="38" fill="#40C9BE"/>
<rect x="23" y="126" width="55" height="39" fill="#40C9BE"/>
<rect x="90" y="129" width="48" height="34" fill="#40C9BE"/>
</svg>
