<svg width="340" height="174" viewBox="0 0 340 174" fill="none" xmlns="http://www.w3.org/2000/svg">
<ellipse cx="35.7108" cy="36.4706" rx="35.7108" ry="36.4706" transform="matrix(-1 0 0 1 339.504 101.059)" fill="#40C9A2"/>
<ellipse cx="35.7108" cy="36.4706" rx="35.7108" ry="36.4706" transform="matrix(-1 0 0 1 190.582 101.059)" fill="#40C9A2"/>
<rect width="205.147" height="118.529" rx="4" transform="matrix(-1 0 0 1 330.386 19)" fill="#2F9C95"/>
<path d="M122.16 45.8431V31.9112C122.16 29.3766 119.833 27.481 117.351 27.994L34.1744 45.1838C32.3165 45.5677 30.9839 47.2039 30.9839 49.101V117.216C30.9839 119.425 32.7748 121.216 34.9839 121.216H118.16C120.37 121.216 122.16 119.425 122.16 117.216V45.8431Z" fill="#2F9C95"/>
<rect x="9.896" width="62.1756" height="2.23963" transform="rotate(58.6126 9.896 0)" fill="#2F9C95"/>
<rect x="1.81445" y="17.2793" width="62.1756" height="2.23963" transform="rotate(54.1113 1.81445 17.2793)" fill="#2F9C95"/>
<path d="M44.9841 55.6537C44.9841 54.694 45.6658 53.8696 46.6083 53.6893L100.108 43.4545C101.341 43.2186 102.484 44.1636 102.484 45.4189V97C102.484 98.1046 101.589 99 100.484 99H46.9841C45.8796 99 44.9841 98.1046 44.9841 97V55.6537Z" fill="white"/>
<path d="M204.928 75.7957L208.899 93.2768C208.983 93.6485 209.271 93.9399 209.642 94.0282L230.574 99.0103C230.965 99.1034 231.374 98.9531 231.612 98.6288L244.381 81.2139C244.46 81.1061 244.517 80.9837 244.548 80.8537L252.878 45.7878C253.072 44.9682 252.229 44.2899 251.47 44.6561L220.929 59.402C220.83 59.4499 220.74 59.5138 220.661 59.5911L205.201 74.8628C204.955 75.1058 204.852 75.4585 204.928 75.7957Z" fill="#A3F7B5" stroke="#40C9A2" stroke-width="3"/>
<path d="M209.114 93.886L243.572 52.3516" stroke="#40C9A2" stroke-width="3"/>
<path d="M217.704 83.6774L232.81 90.4623" stroke="#40C9A2" stroke-width="3"/>
<path d="M217.604 84.3775L213.793 73.4813" stroke="#40C9A2" stroke-width="3"/>
<path d="M225.894 73.7692L238.699 79.1564" stroke="#40C9A2" stroke-width="3"/>
<path d="M225.094 74.37L222.085 65.373" stroke="#40C9A2" stroke-width="3"/>
<path d="M232.885 64.7622L242.289 68.9528" stroke="#40C9A2" stroke-width="3"/>
<path d="M232.885 64.7622L230.278 57.9648" stroke="#40C9A2" stroke-width="3"/>
<path d="M197.904 108.886L211.023 92.4087L200.204 110.457C199.911 110.945 199.272 111.091 198.797 110.779L198.136 110.345C197.645 110.022 197.537 109.346 197.904 108.886Z" fill="#A3F7B5" stroke="#40C9A2" stroke-width="3"/>
<rect width="24" height="22" transform="matrix(-1 0 0 1 91.9841 61.402)" fill="#BFF29F"/>
<path d="M79.4841 76.902V79.402H68.9841" stroke="black"/>
<rect width="2" height="6" transform="matrix(-1 0 0 1 74.9841 68.402)" fill="#060606"/>
<rect width="2" height="6" transform="matrix(-1 0 0 1 68.9841 68.402)" fill="#060606"/>
<rect x="60.9841" y="61.402" width="31" height="4" fill="#40C9BE"/>
<rect x="68.9841" y="52.4019" width="23" height="9" fill="#40C9BE"/>
<rect x="66.9841" y="83.402" width="29" height="16" fill="#40C9BE"/>
</svg>
