<svg width="243" height="277" viewBox="0 0 243 277" fill="none" xmlns="http://www.w3.org/2000/svg">
<rect x="114.35" y="278.606" width="98.7317" height="18.2228" transform="rotate(-84.9115 114.35 278.606)" fill="#2F9C95"/>
<rect x="129.765" y="187.887" width="118.8" height="13.8372" transform="rotate(-46.5362 129.765 187.887)" fill="#2F9C95"/>
<rect x="124.94" y="194.879" width="100.393" height="16.0491" transform="rotate(-91.9412 124.94 194.879)" fill="#2F9C95"/>
<rect x="41.1058" y="135" width="108.303" height="10.6853" transform="rotate(28.5442 41.1058 135)" fill="#2F9C95"/>
<rect x="71.6533" y="133" width="74.1225" height="10.6853" transform="rotate(38.5111 71.6533 133)" fill="#2F9C95"/>
<path d="M135.5 59L173.412 71.3184L196.843 103.568V143.432L173.412 175.682L135.5 188L97.5879 175.682L74.1569 143.432V103.568L97.5879 71.3184L135.5 59Z" fill="#2F9C95"/>
<path d="M180 37L217.03 49.0319L239.917 80.5319V119.468L217.03 150.968L180 163L142.97 150.968L120.083 119.468V80.5319L142.97 49.0319L180 37Z" fill="#40C9A2"/>
<path d="M54.5 47L86.5343 57.4086L106.333 84.6586V118.341L86.5343 145.591L54.5 156L22.4657 145.591L2.66742 118.341V84.6586L22.4657 57.4086L54.5 47Z" fill="#40C9A2"/>
<path d="M104.5 0L149.817 16.4939L173.929 58.2578L165.555 105.75L128.612 136.748H80.3876L43.4452 105.75L35.0711 58.2578L59.1835 16.4939L104.5 0Z" fill="#A3F7B5"/>
<path d="M190.955 122.162L184.236 149.294L164.809 132.044L190.955 122.162Z" fill="#E5F9E0"/>
<path d="M139.127 146.959L132.408 174.092L112.98 156.841L139.127 146.959Z" fill="#E5F9E0"/>
<path d="M139.654 85.5312L115.534 99.6571L114.327 73.7044L139.654 85.5312Z" fill="#E5F9E0"/>
<path d="M107.853 70.1134L70.2783 83.5551L75.4468 46.8243L107.853 70.1134Z" fill="#E5F9E0"/>
<path d="M39.8386 129.332L12.5177 123.426L29.1804 103.492L39.8386 129.332Z" fill="#E5F9E0"/>
</svg>
